C:/Program Files/Krita (x64)/ffmpeg.exe -hide_banner -y -y -r 20 -start_number 0 -start_number_range 1 -i C:/Users/Mozaico/Documents/Más documentos/Proyectos/Neocities/assetspalneocitis/galeria/2022/frame%04d.png -i C:/Users/Mozaico/Documents/Más documentos/Proyectos/Neocities/assetspalneocitis/galeria/2022/KritaTempPalettegen_%06d.png -lavfi [0:v][1:v]paletteuse=dither=sierra2_4a:diff_mode=none -f gif -loop 0 -gifflags +transdiff C:/Users/Mozaico/Documents/Más documentos/Proyectos/Neocities/assetspalneocitis/galeria/2022/MaritzaFNFArrows.gif
=====================================================
Input #0, image2, from 'C:/Users/Mozaico/Documents/Más documentos/Proyectos/Neocities/assetspalneocitis/galeria/2022/frame%04d.png':
  Duration: 00:00:02.80, start: 0.000000, bitrate: N/A
  Stream #0:0: Video: png, rgba(pc, gbr/unknown/unknown), 501x632 [SAR 3937:3937 DAR 501:632], 25 fps, 25 tbr, 25 tbn
Input #1, image2, from 'C:/Users/Mozaico/Documents/Más documentos/Proyectos/Neocities/assetspalneocitis/galeria/2022/KritaTempPalettegen_%06d.png':
  Duration: 00:00:00.04, start: 0.000000, bitrate: N/A
  Stream #1:0: Video: png, rgba(pc, gbr/unknown/unknown), 16x16 [SAR 1:1 DAR 1:1], 25 fps, 25 tbr, 25 tbn
Stream mapping:
  Stream #0:0 (png) -> paletteuse
  Stream #1:0 (png) -> paletteuse
  paletteuse:default -> Stream #0:0 (gif)
Press [q] to stop, [?] for help
Output #0, gif, to 'C:/Users/Mozaico/Documents/Más documentos/Proyectos/Neocities/assetspalneocitis/galeria/2022/MaritzaFNFArrows.gif':
  Metadata:
    encoder         : Lavf62.12.101
  Stream #0:0: Video: gif, pal8(pc, gbr/unknown/unknown, progressive), 501x632 [SAR 1:1 DAR 501:632], q=2-31, 200 kb/s, 20 fps, 100 tbn
    Metadata:
      encoder         : Lavc62.28.101 gif
[out#0/gif @ 000002590811ff00] video:1704KiB audio:0KiB subtitle:0KiB other streams:0KiB global headers:0KiB muxing overhead: 0.001146%
frame=   70 fps=0.0 q=-0.0 Lsize=    1704KiB time=00:00:03.50 bitrate=3989.4kbits/s speed=9.91x elapsed=0:00:00.35    
